<svg xmlns="http://www.w3.org/2000/svg" width="138.648" height="119.5" viewBox="0 0 138.648 119.5">
  <g id="Group_993" data-name="Group 993" transform="translate(-2369.77 -140)">
    <g id="Ellipse_221" data-name="Ellipse 221" transform="translate(2410.945 155.917)" fill="#ffa958" stroke="#ffa958" stroke-width="1">
      <ellipse cx="26.5" cy="27" rx="26.5" ry="27" stroke="none"/>
      <ellipse cx="26.5" cy="27" rx="26" ry="26.5" fill="none"/>
    </g>
    <g id="logo_1_" data-name="logo (1)" transform="translate(2332.77 525.895)">
      <path id="Path_976" data-name="Path 976" d="M97.866-385.348c-14.718,2.811-25.722,10.936-31.774,23.519a44.353,44.353,0,0,0-3.3,9.7c-.619,3.6-1,4.491-1.926,4.731a7.062,7.062,0,0,0-4.814,9.222,5.381,5.381,0,0,1,.344,2.091c-.1.24-3.37,1.474-7.29,2.777a61.1,61.1,0,0,0-8.6,3.326,9.766,9.766,0,0,0-2.476,2.777A6.648,6.648,0,0,0,37-322.849c0,2.331.1,2.811,1.135,4.457a9.463,9.463,0,0,0,6.327,4.32,16.418,16.418,0,0,0,6.637-1.268c1.2-.617,10.385-3.394,10.66-3.223a8.24,8.24,0,0,1,1.2,1.817c1.857,3.428,5.4,4.525,9.663,3.086,1.032-.377,1.2-.274,3.267,1.474,1.2,1.029,2.27,1.92,2.373,2.023,2.3,2.3,10.351,6.24,15.406,7.542a41.891,41.891,0,0,0,28.2-2.606,45.467,45.467,0,0,0,15.818-12.616,54.325,54.325,0,0,0,5.227-8.777c.241-.651.653-1.68.86-2.228a56.951,56.951,0,0,0,1.891-6.411l.413-1.611,3.336-1.1c1.823-.583,3.714-1.3,4.23-1.543a7.212,7.212,0,0,0,3.095-4.354,5.657,5.657,0,0,0-.138-3.668c-.413-1.543-.447-2.16-.138-2.537a45.457,45.457,0,0,1,7.187-2.777c9.594-3.154,10.66-3.943,11.795-8.605a8.916,8.916,0,0,0-5.3-9.942c-2.407-1.063-4.5-.754-11.9,1.714-3.748,1.234-7.049,2.263-7.29,2.263s-.757-.651-1.135-1.474c-1.788-3.908-5.5-4.971-11.038-3.154l-2.545.857-2.407-2.3c-1.341-1.3-2.51-2.434-2.613-2.537s-1.032-.788-2.063-1.543C120.011-384.148,107.632-387.234,97.866-385.348Zm11.829,6.1a14.422,14.422,0,0,1,3.4.823,1.485,1.485,0,0,1,.172,1.1c-.138.994-.722.994-6.706.274-3.026-.343-3.886-.583-3.989-1.029C102.1-379.863,104.055-380.172,109.695-379.246Zm-13.274.926c.791.789.447,1.611-.825,2.16a7.316,7.316,0,0,1-1.754.514c-.928,0-7.462,3.326-9.388,4.765a34.9,34.9,0,0,0-13.067,19.13c-.791,3.154-.825,3.531-.241,3.531a67.641,67.641,0,0,0,7.393-2.3c.791-.309,1.444-.754,1.444-1.029,0-.651,1.719-4.045,3.164-6.308A28.864,28.864,0,0,1,95.6-367.692a35.208,35.208,0,0,1,9.181-1.783,34.382,34.382,0,0,1,8.391,1.337c.378.171,1.375.583,2.235.926a30.628,30.628,0,0,1,3.679,1.954l2.166,1.337,5.055-1.611c8.872-2.811,10.523-3.326,13.067-4.148,5.743-1.886,7.462-.96,9.353,5.177.653,2.091,1.444,4.628,1.754,5.657.344,1.029,1.272,3.977,2.063,6.514s1.582,4.971,1.754,5.417a4.42,4.42,0,0,1-1.547,5.04,102.014,102.014,0,0,1-11.692,3.943c-.825,0-1.479,1.2-2.1,3.771-2.166,9.222-9.869,18.616-18.741,22.936a33.717,33.717,0,0,1-11,3.463c-1.96.309-2.3.274-2.648-.24-1-1.337-.309-1.92,2.854-2.331a39.718,39.718,0,0,0,10.007-3.326,34.146,34.146,0,0,0,16.747-19.919c.413-1.337.516-2.126.275-2.366-.206-.206-1.376,0-3.4.617l-3.095.96-1,2.228a26.32,26.32,0,0,1-12.1,12.548,20.727,20.727,0,0,1-6.327,2.366,27.445,27.445,0,0,1-14.2-.891,59.337,59.337,0,0,1-6.19-2.983,1.579,1.579,0,0,0-1.891-.171,37.868,37.868,0,0,1-3.955,1.371c-1.685.514-4.161,1.268-5.5,1.714-7.187,2.3-8.391,2.606-9.972,2.606-2.441,0-3.473-1.2-4.952-5.9-.653-1.988-1.513-4.7-1.926-6-.413-1.337-1.2-3.805-1.719-5.485-.55-1.714-1.272-4.011-1.616-5.108-1.375-4.285-.206-6,5.468-7.817l3.714-1.2.447-2.194a56.87,56.87,0,0,1,3.06-9.565c4.058-8.948,13.17-16.8,22.455-19.4C95.768-378.8,95.94-378.8,96.421-378.32ZM169.666-369a6.5,6.5,0,0,1,3.267,7.508c-.688,2.4-2.166,3.668-5.605,4.8-1.616.549-3.232,1.131-3.611,1.269-2.785,1.166-8.253,2.708-8.528,2.434-.344-.343-1.135-2.606-2.992-8.571-.894-2.811-.757-3.463.894-3.84.55-.137,3.473-1.1,6.5-2.16C165.437-369.544,167.913-369.921,169.666-369ZM59.008-328.575c.791,2.5,1.616,5.04,1.823,5.657.309.891.275,1.2-.1,1.543-.894.823-13.48,4.8-15.13,4.8a5.8,5.8,0,0,1-6.121-5.794c-.172-2.537.481-4.148,2.166-5.417,1.135-.857,15.234-5.76,15.715-5.485A33.674,33.674,0,0,1,59.008-328.575Zm35.419,17.21a16.6,16.6,0,0,0,3.439.857,1.5,1.5,0,0,1,1.719,1.577c0,1.131-1,1.268-4.023.549-4.78-1.166-5.64-1.748-5.055-3.291C90.782-312.393,91.4-312.358,94.427-311.364Z" fill="#9d3a01"/>
      <path id="Path_977" data-name="Path 977" d="M308.581-321.68c-1.914.626-5.291,1.74-7.483,2.436-5.221,1.671-5.291,1.706-4.177,2.785l.87.835,1.914-.627c1.044-.348,4.038-1.288,6.613-2.054,7-2.158,8.04-2.75,6.961-4.038C312.723-323.038,312.653-323,308.581-321.68Z" transform="translate(-170.315 -41.5)" fill="#9d3a01"/>
      <path id="Path_978" data-name="Path 978" d="M201.666-313.012a19.485,19.485,0,0,0-2.959,1.079,18.484,18.484,0,0,0-5.6,5.534c-.244.557-.592,1.323-.766,1.636a10.933,10.933,0,0,0,.139,5.6,5.524,5.524,0,0,0,3.133,2.541c1.357.278,1.88-.278,1.357-1.427a14.527,14.527,0,0,1-.418-4.107c0-2.785.139-3.411.9-4.734a5.883,5.883,0,0,1,3.028-2.889c.975-.418,1.079.452.487,3.655-.278,1.566-.7,3.933-.9,5.291-.209,1.323-.592,3.933-.9,5.743-.278,1.81-.661,4.316-.87,5.569-.174,1.253-.592,3.759-.9,5.6a23.007,23.007,0,0,0-.418,4.351c.1.94.209,1.009,1.5,1.009,1.323,0,1.392-.035,1.636-1.392.627-3.307,1.392-7.831,1.671-9.92.731-5.569,1.149-7.866,1.6-8.528.452-.627.487-.627.487.348a31.449,31.449,0,0,0,.557,4c.278,1.636.661,3.724.835,4.7.174.94.557,2.993.835,4.525a27.886,27.886,0,0,1,.557,3.864c0,1.88.835,2.576,2.993,2.576,2.436,0,3.272-.418,3.272-1.706a12.677,12.677,0,0,1,.522-2.68,12.57,12.57,0,0,0,.522-2.541,8.107,8.107,0,0,1,.313-1.914c.348-1.218,1.288-5.639,1.949-9.607.592-3.376.9-1.88,1.531,7.135.487,7.24.766,9.99,1.149,10.686.452.9,5.047.9,5.4.035a49.324,49.324,0,0,0-.383-7.2c-.313-3.655-.627-7.588-.7-8.736-.8-12.53-1.044-15.419-1.5-16.986-.139-.522-.522-.592-2.785-.522l-2.645.1-.418,1.566A55.584,55.584,0,0,0,214.3-303.3a7.71,7.71,0,0,1-.313,1.74c-.209.592-.592,2.4-.9,4.038s-.7,3.446-.9,4.038a8.377,8.377,0,0,0-.313,1.949c0,1.288-.348,2.019-.9,2.019-.313,0-.487-.383-.487-1.114a33.912,33.912,0,0,0-.522-3.9c-1.009-5.291-1.183-6.3-1.74-9.955-.313-2.019-.731-4.212-.9-4.908a10.781,10.781,0,0,1-.313-1.984C206.992-312.942,204.312-313.742,201.666-313.012Z" transform="translate(-101.919 -47.978)" fill="#9d3a01"/>
      <path id="Path_979" data-name="Path 979" d="M123.491-263.313c-.766.244-3.515,1.149-6.091,1.949s-5.43,1.706-6.335,1.984c-1.6.522-2.332,1.392-1.845,2.193.278.418,1.949.453,3.028.035.452-.174,2.228-.731,3.933-1.288,9.467-2.889,9.746-3.028,9.746-4.142C125.928-263.8,125.441-263.974,123.491-263.313Z" transform="translate(-47.329 -80.362)" fill="#9d3a01"/>
    </g>
    <text id="Mess_Connect" data-name="Mess Connect" transform="translate(2389 252)" fill="#e26d00" stroke="#e26d00" stroke-width="0.5" font-size="22" font-family="BrushScriptMT, Brush Script MT"><tspan x="0" y="0">Mess Connect</tspan></text>
  </g>
</svg>
